<svg width="362" height="79" viewBox="0 0 362 79" fill="none" xmlns="http://www.w3.org/2000/svg">
<g clip-path="url(#clip0_3_531)">
<path d="M361.758 35.4449V29.0898H353.866V19.211L353.601 19.2922L346.189 21.5604L346.043 21.6048V29.0898H334.344V24.9204C334.344 22.9789 334.778 21.4926 335.634 20.5025C336.484 19.5229 337.699 19.0254 339.249 19.0254C340.364 19.0254 341.517 19.2879 342.679 19.8052L342.97 19.9351V13.2433L342.833 13.1939C341.75 12.8037 340.276 12.6082 338.45 12.6082C336.148 12.6082 334.057 13.1085 332.233 14.1015C330.435 15.0683 328.954 16.5325 327.967 18.319C326.964 20.1214 326.456 22.2026 326.456 24.5061V29.0905H320.962V35.4456H326.456V62.2161H334.344V35.4449H346.043V52.4572C346.043 59.4637 349.347 63.015 355.866 63.015C356.992 63.0084 358.115 62.8835 359.215 62.6423C360.386 62.3904 361.184 62.1384 361.654 61.8696L361.758 61.8082V55.3945L361.437 55.6069C361.009 55.8927 360.476 56.1256 359.851 56.2985C359.223 56.475 358.698 56.5639 358.293 56.5639C356.765 56.5639 355.636 56.1524 354.935 55.3401C354.226 54.5215 353.866 53.0882 353.866 51.0839V35.4449H361.758ZM303.346 56.5646C300.483 56.5646 298.226 55.6147 296.634 53.7452C295.034 51.8651 294.223 49.1862 294.223 45.781C294.223 42.2686 295.034 39.5198 296.636 37.6066C298.227 35.7067 300.463 34.742 303.282 34.742C306.016 34.742 308.193 35.663 309.753 37.4816C311.321 39.3088 312.116 42.0357 312.116 45.5891C312.116 49.1862 311.368 51.9498 309.893 53.7981C308.428 55.633 306.226 56.5646 303.346 56.5646ZM303.697 28.2916C298.235 28.2916 293.896 29.8922 290.804 33.049C287.712 36.2064 286.144 40.5749 286.144 46.0358C286.144 51.2222 287.674 55.3938 290.692 58.4334C293.71 61.4736 297.817 63.0135 302.898 63.0135C308.193 63.0135 312.445 61.3911 315.537 58.1906C318.628 54.9936 320.195 50.6661 320.195 45.3322C320.195 40.0653 318.725 35.8627 315.825 32.8436C312.923 29.8231 308.842 28.2916 303.697 28.2916ZM273.426 28.2916C269.71 28.2916 266.637 29.2422 264.289 31.116C261.927 33.001 260.729 35.4738 260.729 38.4654C260.729 40.0202 260.987 41.4013 261.497 42.5728C262.008 43.7485 262.801 44.7831 263.854 45.6519C264.898 46.5136 266.511 47.4162 268.649 48.3337C270.445 49.0733 271.785 49.6992 272.636 50.1918C273.468 50.6753 274.059 51.1608 274.392 51.6337C274.716 52.0959 274.88 52.7296 274.88 53.5109C274.88 55.7368 273.214 56.8194 269.785 56.8194C268.512 56.8194 267.061 56.554 265.472 56.0303C263.894 55.5144 262.405 54.7592 261.056 53.7911L260.729 53.5568V61.1504L260.849 61.2069C261.965 61.7221 263.373 62.1561 265.031 62.4984C266.687 62.8399 268.19 63.0143 269.497 63.0143C273.529 63.0143 276.776 62.0594 279.144 60.1744C281.53 58.276 282.738 55.7459 282.738 52.6499C282.738 50.4177 282.087 48.5023 280.804 46.9582C279.532 45.4268 277.321 44.0202 274.239 42.7774C271.783 41.7915 270.209 40.9736 269.56 40.3455C268.934 39.7386 268.617 38.8804 268.617 37.7943C268.617 36.8303 269.009 36.0589 269.814 35.4336C270.626 34.8055 271.755 34.4858 273.171 34.4858C274.486 34.4858 275.83 34.6933 277.167 35.0998C278.504 35.507 279.677 36.0525 280.657 36.7188L280.979 36.9389V29.7348L280.856 29.6819C279.952 29.2938 278.76 28.9621 277.313 28.6939C275.87 28.4271 274.563 28.2916 273.426 28.2916ZM240.165 56.5646C237.302 56.5646 235.045 55.6147 233.454 53.7452C231.853 51.8651 231.044 49.1862 231.044 45.781C231.044 42.2686 231.854 39.5198 233.456 37.6066C235.046 35.7067 237.281 34.742 240.101 34.742C242.836 34.742 245.013 35.663 246.573 37.4816C248.14 39.3088 248.935 42.0357 248.935 45.5891C248.935 49.1862 248.187 51.9498 246.712 53.7981C245.247 55.633 243.045 56.5646 240.165 56.5646ZM240.517 28.2916C235.053 28.2916 230.714 29.8922 227.623 33.049C224.532 36.2064 222.963 40.5749 222.963 46.0358C222.963 51.2243 224.495 55.3938 227.512 58.4334C230.529 61.4736 234.636 63.0135 239.718 63.0135C245.011 63.0135 249.265 61.3911 252.358 58.1906C255.448 54.9936 257.015 50.6661 257.015 45.3322C257.015 40.0653 255.545 35.8627 252.644 32.8436C249.741 29.8231 245.661 28.2916 240.517 28.2916ZM210.989 34.8267V29.0898H203.197V62.2147H210.988V45.2694C210.988 42.3879 211.642 40.0209 212.931 38.2332C214.204 36.4668 215.9 35.5712 217.97 35.5712C218.672 35.5712 219.46 35.687 220.313 35.9163C221.158 36.1436 221.77 36.3906 222.13 36.6503L222.458 36.8881V29.0333L222.331 28.979C221.606 28.6706 220.579 28.5153 219.281 28.5153C217.322 28.5153 215.57 29.1441 214.07 30.3827C212.752 31.4716 211.799 32.965 211.072 34.8267H210.989ZM189.243 28.2916C185.669 28.2916 182.48 29.0588 179.768 30.5697C177.05 32.0835 174.948 34.2466 173.518 36.9954C172.095 39.7386 171.372 42.9426 171.372 46.5157C171.372 49.6449 172.073 52.5172 173.458 55.048C174.844 57.5837 176.806 59.5675 179.288 60.9436C181.768 62.3177 184.634 63.0143 187.806 63.0143C191.509 63.0143 194.671 62.2739 197.207 60.8145L197.308 60.7552V53.6167L196.982 53.856C195.815 54.7013 194.531 55.37 193.169 55.8405C191.792 56.3211 190.537 56.5639 189.436 56.5639C186.378 56.5639 183.924 55.6076 182.142 53.7219C180.357 51.8327 179.451 49.1812 179.451 45.8438C179.451 42.486 180.396 39.7661 182.256 37.7583C184.111 35.7575 186.57 34.7427 189.564 34.7427C192.126 34.7427 194.621 35.61 196.982 37.3229L197.308 37.56V30.0383L197.203 29.979C196.314 29.4815 195.103 29.0708 193.598 28.7595C192.101 28.449 190.636 28.2916 189.243 28.2916ZM166.006 29.0898H158.213V62.2147H166.006V29.0898ZM162.189 14.9787C160.907 14.9787 159.788 15.4156 158.869 16.2801C157.946 17.1481 157.478 18.2406 157.478 19.5293C157.478 20.7982 157.941 21.8702 158.854 22.7149C159.762 23.5569 160.884 23.9838 162.189 23.9838C163.493 23.9838 164.62 23.5569 165.539 22.7164C166.463 21.8702 166.932 20.7982 166.932 19.5293C166.932 18.2858 166.476 17.2039 165.577 16.3154C164.678 15.4283 163.538 14.9787 162.189 14.9787ZM142.748 26.6466V62.214H150.7V15.9929H139.694L125.704 50.3245L112.129 15.9929H100.675V62.2147H108.148V26.643H108.405L122.74 62.2147H128.379L142.491 26.6459L142.748 26.6466Z" fill="#868686"/>
<path d="M37.0787 37.2023H0.423828V0.547363H37.0787V37.2023Z" fill="#868686"/>
<path d="M77.5511 37.2023H40.8961V0.547363H77.5511V37.2023Z" fill="#868686"/>
<path d="M37.0781 77.688H0.42392V41.0331H37.0781V77.688Z" fill="#868686"/>
<path d="M77.5511 77.688H40.8961V41.0331H77.5511V77.688Z" fill="#868686"/>
</g>
<defs>
<clipPath id="clip0_3_531">
<rect width="361.334" height="77.6303" fill="white" transform="translate(0.423828 0.547363)"/>
</clipPath>
</defs>
</svg>
